<?xml version="1.0" encoding="UTF-8" standalone="no"?>
<svg
   width="98"
   height="96"
   version="1.1"
   id="svg4"
   sodipodi:docname="LinkedIn.svg"
   xml:space="preserve"
   inkscape:version="1.2.2 (b0a8486541, 2022-12-01)"
   xmlns:inkscape="http://www.inkscape.org/namespaces/inkscape"
   xmlns:sodipodi="http://sodipodi.sourceforge.net/DTD/sodipodi-0.dtd"
   xmlns="http://www.w3.org/2000/svg"
   xmlns:svg="http://www.w3.org/2000/svg"><defs
     id="defs8" /><sodipodi:namedview
     id="namedview6"
     pagecolor="#505050"
     bordercolor="#ffffff"
     borderopacity="1"
     inkscape:showpageshadow="0"
     inkscape:pageopacity="0"
     inkscape:pagecheckerboard="1"
     inkscape:deskcolor="#505050"
     showgrid="false"
     inkscape:zoom="2.0364584"
     inkscape:cx="98.455242"
     inkscape:cy="63.836317"
     inkscape:window-width="1920"
     inkscape:window-height="1011"
     inkscape:window-x="0"
     inkscape:window-y="0"
     inkscape:window-maximized="1"
     inkscape:current-layer="g3019" /><g
     transform="matrix(1.8464714,0,0,-1.8464714,-461.57409,164.28615)"
     id="g3019"><path
       id="path14"
       style="fill:#ffffff;fill-opacity:1;fill-rule:nonzero;stroke:none;stroke-width:0.694705"
       d="m 254.49921,88.973027 c -2.10857,0 -3.81686,-1.667312 -3.81686,-3.723635 V 40.706937 c 0,-2.057018 1.70829,-3.724967 3.81686,-3.724967 h 44.02839 c 2.1085,0 3.81686,1.667949 3.81686,3.724967 v 44.542455 c 0,2.056323 -1.70836,3.723635 -3.81686,3.723635 z m 7.9933,-8.727104 c 2.66955,0 4.31215,-1.752941 4.36289,-4.056578 0,-2.252923 -1.69367,-4.055246 -4.41483,-4.055246 h -0.0506 c -2.61867,0 -4.31228,1.802323 -4.31228,4.055246 0,2.303637 1.74557,4.056578 4.41483,4.056578 z m 23.0037,-10.767378 c 5.13394,0 8.98414,-3.355259 8.98414,-10.566281 V 45.45071 h -7.80285 v 12.559944 c 0,3.156037 -1.13043,5.308444 -3.95403,5.308444 -2.15567,0 -3.43921,-1.450746 -4.00331,-2.852656 -0.20603,-0.501577 -0.25704,-1.202784 -0.25704,-1.904434 V 45.45071 h -7.80285 c 0,0 0.10236,21.274908 0,23.477812 h 7.80285 v -3.325434 c 1.03667,1.599849 2.89136,3.875457 7.03309,3.875457 z m -7.03309,-3.875457 c -0.017,-0.02623 -0.0354,-0.05406 -0.0519,-0.07991 h 0.0519 z m -19.92331,3.325434 h 7.80286 V 45.45071 h -7.80286 z" /></g></svg>
