<?xml version="1.0" encoding="UTF-8" standalone="no"?>
<svg
   width="98"
   height="96"
   version="1.1"
   id="svg4"
   sodipodi:docname="LinkedIn (another copy).svg"
   xml:space="preserve"
   inkscape:version="1.2.2 (b0a8486541, 2022-12-01)"
   xmlns:inkscape="http://www.inkscape.org/namespaces/inkscape"
   xmlns:sodipodi="http://sodipodi.sourceforge.net/DTD/sodipodi-0.dtd"
   xmlns="http://www.w3.org/2000/svg"
   xmlns:svg="http://www.w3.org/2000/svg"><defs
     id="defs8" /><sodipodi:namedview
     id="namedview6"
     pagecolor="#505050"
     bordercolor="#ffffff"
     borderopacity="1"
     inkscape:showpageshadow="0"
     inkscape:pageopacity="0"
     inkscape:pagecheckerboard="1"
     inkscape:deskcolor="#505050"
     showgrid="false"
     inkscape:zoom="4.0729168"
     inkscape:cx="72.552427"
     inkscape:cy="67.028131"
     inkscape:window-width="1920"
     inkscape:window-height="1011"
     inkscape:window-x="0"
     inkscape:window-y="0"
     inkscape:window-maximized="1"
     inkscape:current-layer="g3019" /><g
     transform="matrix(1.8464714,0,0,-1.8464714,-461.57409,164.28615)"
     id="g3019"><path
       fill="#1d9bf0"
       d="m 297.61696,73.804444 c 0.0323,-0.467892 0.0323,-0.93578 0.0323,-1.407983 0,-14.388146 -10.95336,-30.982056 -30.98205,-30.982056 v 0.0086 c -5.91655,-0.0086 -11.71018,1.686128 -16.69094,4.881577 0.86031,-0.103497 1.72493,-0.155245 2.59172,-0.157401 4.90314,-0.0043 9.66612,1.640848 13.52352,4.670272 -4.6595,0.0884 -8.74544,3.126451 -10.17283,7.5617 1.63222,-0.314801 3.31404,-0.250116 4.91608,0.187587 -5.07995,1.026339 -8.73466,5.489616 -8.73466,10.673058 v 0.137996 c 1.51363,-0.843062 3.20838,-1.310954 4.94195,-1.362703 -4.78455,3.197607 -6.25937,9.562631 -3.3701,14.539081 5.52843,-6.80273 13.68523,-10.938271 22.44145,-11.375972 -0.87756,3.781928 0.32127,7.744975 3.15017,10.403536 4.38566,4.122602 11.28326,3.911298 15.40586,-0.472203 2.43863,0.480827 4.77593,1.375639 6.91485,2.643468 -0.81288,-2.520565 -2.5141,-4.661647 -4.78671,-6.022189 2.15833,0.254425 4.26707,0.832281 6.2529,1.714158 -1.46188,-2.190674 -3.30325,-4.098889 -5.43355,-5.640553 z"
       id="path234"
       style="fill:#ffffff;stroke-width:0.215618" /></g></svg>
