<?xml version="1.0" encoding="UTF-8" standalone="no"?>
<svg
   width="98"
   height="96"
   version="1.1"
   id="svg393"
   sodipodi:docname="GitHub (copy).svg"
   inkscape:version="1.2.2 (b0a8486541, 2022-12-01)"
   xmlns:inkscape="http://www.inkscape.org/namespaces/inkscape"
   xmlns:sodipodi="http://sodipodi.sourceforge.net/DTD/sodipodi-0.dtd"
   xmlns="http://www.w3.org/2000/svg"
   xmlns:svg="http://www.w3.org/2000/svg">
  <defs
     id="defs397" />
  <sodipodi:namedview
     id="namedview395"
     pagecolor="#505050"
     bordercolor="#ffffff"
     borderopacity="1"
     inkscape:showpageshadow="0"
     inkscape:pageopacity="0"
     inkscape:pagecheckerboard="1"
     inkscape:deskcolor="#505050"
     showgrid="false"
     inkscape:zoom="8.1458333"
     inkscape:cx="46.772379"
     inkscape:cy="48"
     inkscape:window-width="1920"
     inkscape:window-height="1011"
     inkscape:window-x="0"
     inkscape:window-y="0"
     inkscape:window-maximized="1"
     inkscape:current-layer="svg393">
    <sodipodi:guide
       position="0,96"
       orientation="0,98"
       id="guide543"
       inkscape:locked="false" />
    <sodipodi:guide
       position="98,96"
       orientation="96,0"
       id="guide545"
       inkscape:locked="false" />
    <sodipodi:guide
       position="98,0"
       orientation="0,-98"
       id="guide547"
       inkscape:locked="false" />
    <sodipodi:guide
       position="0,0"
       orientation="-96,0"
       id="guide549"
       inkscape:locked="false" />
  </sodipodi:namedview>
  <path
     id="path7"
     style="fill:#ffffff;stroke-width:0.807241"
     class="st0"
     d="m 48.998454,13.692236 c 0,0 -30.67282,1.59e-4 -38.341606,2.018262 C 6.5399208,16.840636 3.1483982,20.231843 2.0182606,24.429495 1.5851493e-4,32.098281 -5.7223021e-7,48 -5.7223021e-7,48 c 0,0 1.5908716021e-4,15.982442 2.01826117223021,23.570505 1.1301376,4.197651 4.4409369,7.50845 8.6385874,8.638587 7.74951,2.098826 38.341606,2.098672 38.341606,2.098672 0,0 30.675499,-1.59e-4 38.344283,-2.018262 4.197654,-1.130138 7.508451,-4.440936 8.638588,-8.638588 2.018105,-7.668785 2.018265,-23.570505 2.018265,-23.570505 0,0 0.08057,-15.982128 -2.018265,-23.650914 C 94.851188,20.231843 91.540391,16.921044 87.342737,15.790908 79.673953,13.692082 48.998454,13.692236 48.998454,13.692236 Z M 38.041412,31.934318 65.932551,48 38.041412,64.065683 Z" />
</svg>
