<?xml version="1.0" encoding="UTF-8" standalone="no"?>
<svg
   width="98"
   height="96"
   version="1.1"
   id="svg4"
   sodipodi:docname="YoutubeMusic.svg"
   xml:space="preserve"
   inkscape:version="1.2.2 (b0a8486541, 2022-12-01)"
   xmlns:inkscape="http://www.inkscape.org/namespaces/inkscape"
   xmlns:sodipodi="http://sodipodi.sourceforge.net/DTD/sodipodi-0.dtd"
   xmlns="http://www.w3.org/2000/svg"
   xmlns:svg="http://www.w3.org/2000/svg"><defs
     id="defs8">
	
	
	
</defs><sodipodi:namedview
     id="namedview6"
     pagecolor="#505050"
     bordercolor="#ffffff"
     borderopacity="1"
     inkscape:showpageshadow="0"
     inkscape:pageopacity="0"
     inkscape:pagecheckerboard="1"
     inkscape:deskcolor="#505050"
     showgrid="false"
     inkscape:zoom="4.0729167"
     inkscape:cx="-5.6470588"
     inkscape:cy="72.675192"
     inkscape:window-width="1920"
     inkscape:window-height="1011"
     inkscape:window-x="0"
     inkscape:window-y="0"
     inkscape:window-maximized="1"
     inkscape:current-layer="g3019" /><g
     transform="matrix(1.8464714,0,0,-1.8464714,-461.57409,164.28615)"
     id="g3019"><path
       id="XMLID_791_"
       style="fill:#ffffff;stroke-width:0.295403"
       d="M 276.5134 88.973027 A 25.99541 25.99541 0 0 1 250.51787 62.977499 A 25.99541 25.99541 0 0 1 276.5134 36.98197 A 25.99541 25.99541 0 0 1 302.50893 62.977499 A 25.99541 25.99541 0 0 1 276.5134 88.973027 z M 276.5134 85.267691 C 288.7978 85.267691 298.80254 75.260837 298.80254 62.976441 C 298.80254 50.692046 288.7978 40.687306 276.5134 40.687306 C 264.22901 40.687306 254.22427 50.692046 254.22427 62.976441 C 254.22427 75.260837 264.22901 85.267691 276.5134 85.267691 z M 276.5134 80.908659 C 266.58514 80.908659 258.58436 72.904703 258.58436 62.976441 C 258.58436 53.04818 266.58514 45.047396 276.5134 45.047396 C 286.44166 45.047396 294.44351 53.04818 294.44351 62.976441 C 294.44351 72.904703 286.44166 80.908659 276.5134 80.908659 z M 269.51949 73.032572 L 286.56848 63.415412 L 269.51949 52.922425 L 269.51949 73.032572 z " /></g></svg>
